<?xml version="1.0" standalone="no"?>
<!DOCTYPE svg PUBLIC "-//W3C//DTD SVG 20010904//EN"
 "http://www.w3.org/TR/2001/REC-SVG-20010904/DTD/svg10.dtd">
<svg version="1.0" xmlns="http://www.w3.org/2000/svg"
 width="800.000000pt" height="800.000000pt" viewBox="0 0 800.000000 800.000000"
 preserveAspectRatio="xMidYMid meet">
<metadata>
Created by potrace 1.14, written by Peter Selinger 2001-2017
</metadata>
<g transform="translate(0.000000,800.000000) scale(0.100000,-0.100000)"
fill="#000000" stroke="none">
<path d="M4635 6835 c-22 -8 -57 -33 -79 -57 -49 -55 -148 -162 -240 -259 -94
-100 -247 -267 -278 -303 l-25 -29 -181 180 c-195 194 -198 195 -289 185 -33
-4 -64 -32 -284 -252 -153 -153 -251 -258 -255 -275 -3 -14 -4 -45 -1 -67 5
-38 25 -61 245 -282 131 -133 249 -255 261 -273 25 -38 28 -98 5 -133 -9 -14
-127 -136 -261 -271 -225 -226 -245 -249 -250 -287 -3 -22 -2 -53 1 -68 8 -29
447 -480 502 -514 19 -12 49 -20 76 -20 59 0 85 20 277 214 l155 155 35 -41
c19 -22 48 -55 65 -73 100 -106 367 -393 441 -473 57 -62 105 -81 163 -64 30
9 176 150 752 727 l715 715 0 65 0 65 -715 715 c-451 451 -724 718 -740 721
-14 3 -32 7 -40 9 -8 2 -33 -2 -55 -10z"/>
<path d="M2876 5567 c-28 -30 -80 -84 -115 -120 -77 -81 -91 -106 -91 -163 0
-51 17 -82 74 -139 23 -22 67 -71 100 -108 64 -73 107 -95 169 -83 27 5 52 26
118 99 46 50 87 93 91 95 4 2 23 25 43 52 43 59 47 110 12 161 -13 19 -72 85
-133 147 l-109 112 -54 0 c-53 0 -56 -2 -105 -53z"/>
<path d="M1578 5489 c-21 -22 -38 -42 -38 -44 0 -12 67 -75 80 -75 17 0 80 60
80 75 -1 12 -67 85 -78 85 -4 0 -24 -19 -44 -41z"/>
<path d="M1681 5283 c-28 -26 -51 -55 -51 -65 0 -23 84 -108 107 -108 27 0
103 77 103 104 0 14 -19 40 -49 69 -27 26 -52 47 -55 47 -2 0 -27 -21 -55 -47z"/>
<path d="M2312 5272 c-35 -33 -62 -66 -62 -78 0 -33 103 -134 138 -134 20 0
132 114 132 134 0 20 -115 136 -134 136 -6 0 -40 -26 -74 -58z"/>
<path d="M1924 5118 c-97 -94 -98 -104 -3 -198 91 -91 100 -91 190 -2 97 96
97 102 3 195 -43 44 -85 77 -96 77 -11 0 -53 -32 -94 -72z"/>
<path d="M2423 4917 c-137 -138 -137 -145 6 -286 116 -113 142 -115 242 -18
104 101 119 123 119 170 0 40 -5 48 -88 130 -48 48 -93 87 -100 87 -6 0 -12 5
-12 10 0 6 -14 10 -32 10 -26 0 -47 -16 -135 -103z"/>
<path d="M4010 3182 c-66 -22 -119 -61 -162 -117 -41 -54 -47 -77 -57 -233
l-6 -97 -83 -3 -83 -3 3 -32 3 -32 80 -5 80 -5 3 -467 2 -468 45 0 45 0 2 468
3 467 103 3 102 3 0 34 0 34 -102 3 -103 3 -3 94 c-6 183 46 254 204 282 67
12 71 16 58 67 -5 19 -13 22 -48 21 -22 -1 -61 -8 -86 -17z"/>
<path d="M4270 2976 l0 -76 50 0 51 0 -3 73 -3 72 -47 3 -48 3 0 -75z"/>
<path d="M2087 2740 c-114 -18 -223 -99 -263 -195 -9 -22 -20 -49 -25 -60 -17
-40 -39 -189 -39 -263 0 -74 23 -227 39 -267 58 -139 125 -201 262 -244 46
-14 185 -14 246 0 83 20 158 42 166 49 4 3 1 23 -8 43 -15 36 -29 40 -60 16
-11 -8 -66 -23 -150 -41 -121 -25 -248 16 -309 101 -101 139 -117 421 -35 626
26 68 71 113 146 146 98 45 196 35 374 -36 13 -5 20 2 29 30 7 21 8 41 4 45
-17 16 -162 48 -240 54 -44 2 -105 1 -137 -4z"/>
<path d="M2987 2740 c-130 -23 -238 -146 -283 -320 -24 -91 -24 -330 0 -419
41 -153 123 -243 257 -285 95 -30 274 -14 410 35 63 23 70 35 48 83 l-12 25
-38 -19 c-99 -51 -151 -64 -259 -65 -82 0 -114 4 -145 19 -112 52 -175 170
-178 335 l-2 76 344 3 344 2 -6 108 c-6 104 -26 193 -59 257 -27 51 -96 115
-151 140 -59 27 -191 39 -270 25z m229 -90 c103 -50 141 -113 165 -278 11 -71
11 -85 -2 -93 -8 -5 -141 -8 -304 -6 l-290 2 2 63 c10 262 217 412 429 312z"/>
<path d="M4992 2741 c-61 -16 -122 -54 -168 -104 -25 -28 -49 -46 -53 -41 -5
5 -14 37 -21 72 -13 62 -13 62 -48 62 -33 0 -34 -1 -27 -32 3 -18 9 -246 12
-505 l5 -473 44 0 44 0 0 370 c0 354 1 373 20 411 52 101 165 179 260 179 93
0 192 -72 222 -160 8 -23 14 -161 18 -415 l5 -380 47 -3 47 -3 3 378 3 378 35
50 c48 70 57 79 124 119 50 30 69 36 118 36 104 0 190 -54 230 -145 10 -22 14
-129 18 -420 l5 -390 45 0 45 0 0 375 c0 416 -3 437 -68 533 -24 36 -47 55
-95 79 -58 29 -73 32 -160 32 -89 1 -102 -2 -155 -29 -53 -27 -111 -83 -148
-142 -20 -33 -32 -29 -58 18 -36 63 -79 108 -127 129 -49 23 -171 34 -222 21z"/>
<path d="M4272 2228 l3 -503 45 0 45 0 3 503 2 502 -50 0 -50 0 2 -502z"/>
<path d="M1676 1496 c-9 -14 -12 -27 -7 -30 11 -7 64 38 55 47 -14 13 -32 7
-48 -17z"/>
<path d="M2222 1378 c2 -87 7 -143 13 -143 6 0 11 56 13 143 2 123 0 142 -13
142 -13 0 -15 -19 -13 -142z"/>
<path d="M2740 1469 c0 -45 -2 -50 -17 -43 -28 13 -79 9 -95 -7 -46 -45 -51
-112 -12 -158 28 -33 79 -42 102 -19 10 10 17 10 31 1 10 -7 22 -9 25 -6 3 4
6 69 6 145 0 131 -1 138 -20 138 -17 0 -20 -7 -20 -51z m-18 -76 c23 -21 24
-89 1 -115 -37 -41 -93 -7 -93 57 0 63 51 95 92 58z"/>
<path d="M3660 1376 c0 -80 4 -146 8 -146 4 0 14 6 20 12 10 10 17 10 32 0 30
-18 62 -14 95 12 27 22 30 30 30 80 0 44 -5 60 -22 77 -23 23 -73 30 -105 15
-14 -7 -17 -1 -20 41 -2 36 -7 49 -20 51 -17 3 -18 -9 -18 -142z m134 12 c34
-48 9 -128 -40 -128 -37 0 -54 23 -54 71 0 71 59 107 94 57z"/>
<path d="M4550 1470 c0 -46 -2 -51 -17 -44 -10 4 -33 8 -51 8 -47 -1 -74 -31
-79 -91 -5 -42 -1 -53 22 -81 28 -34 79 -44 103 -20 8 8 15 8 24 0 31 -25 37
2 35 138 -2 119 -4 135 -19 138 -15 3 -18 -4 -18 -48z m-16 -82 c9 -12 16 -38
16 -57 0 -67 -60 -94 -99 -45 -26 34 -26 58 0 95 25 35 61 38 83 7z"/>
<path d="M1394 1497 c-2 -7 -3 -69 -2 -138 l3 -124 74 0 c49 0 76 4 78 12 3 8
-14 13 -54 15 l-58 3 -3 123 c-2 100 -5 122 -18 122 -8 0 -17 -6 -20 -13z"/>
<path d="M1547 1483 c-3 -16 -9 -36 -12 -45 -5 -12 -2 -18 8 -18 8 0 20 12 25
28 5 15 13 35 17 45 5 13 2 17 -13 17 -13 0 -21 -9 -25 -27z"/>
<path d="M5322 1498 c-15 -15 -16 -28 -2 -28 6 0 10 6 10 14 0 8 6 17 13 19 6
3 7 6 2 6 -6 1 -16 -4 -23 -11z"/>
<path d="M4200 1465 c0 -13 -8 -29 -17 -35 -17 -10 -17 -10 0 -20 13 -9 17
-25 17 -79 0 -76 14 -105 50 -99 30 4 39 28 11 28 -23 0 -35 40 -29 105 2 33
7 41 26 43 12 2 22 7 22 12 0 5 -10 10 -22 12 -17 2 -24 11 -26 31 -4 34 -32
37 -32 2z"/>
<path d="M1640 1427 c-14 -7 -33 -30 -43 -52 -17 -34 -17 -44 -6 -77 6 -21 23
-45 35 -53 35 -23 124 -18 124 6 0 5 -22 9 -48 9 -36 0 -54 5 -67 20 -31 35
-13 50 61 50 l67 0 -6 35 c-3 19 -13 42 -21 50 -21 22 -67 28 -96 12z m68 -29
c7 -7 12 -20 12 -30 0 -15 -8 -18 -44 -18 -52 0 -61 9 -40 38 17 24 53 29 72
10z"/>
<path d="M1865 1432 c-50 -17 -75 -52 -75 -106 0 -25 8 -43 31 -66 27 -26 38
-31 72 -28 51 4 63 28 15 28 -46 0 -78 31 -78 75 0 44 32 75 77 75 35 0 44 14
17 24 -18 7 -31 6 -59 -2z"/>
<path d="M2024 1424 c-42 -21 -61 -76 -44 -128 21 -64 104 -87 153 -42 54 50
39 153 -24 175 -41 14 -48 14 -85 -5z m87 -36 c40 -45 13 -128 -41 -128 -53 0
-79 72 -44 125 20 31 60 33 85 3z"/>
<path d="M2354 1430 c-35 -14 -54 -50 -54 -100 0 -50 4 -59 40 -83 25 -17 75
-22 104 -11 30 12 16 24 -27 24 -46 0 -77 21 -77 53 0 14 11 17 66 17 l67 0
-6 37 c-4 20 -12 42 -19 50 -18 17 -68 25 -94 13z m75 -42 c12 -32 6 -38 -45
-38 -36 0 -44 3 -44 18 0 45 74 61 89 20z"/>
<path d="M3490 1427 c-32 -16 -50 -52 -50 -100 0 -30 7 -46 30 -68 26 -26 36
-30 77 -27 62 4 71 28 11 28 -34 0 -50 6 -67 24 -13 14 -20 29 -16 35 3 6 35
11 71 11 l64 0 0 30 c0 37 -39 80 -72 80 -13 0 -34 -6 -48 -13z m80 -37 c16
-30 4 -40 -46 -40 -45 0 -52 7 -34 41 15 26 66 26 80 -1z"/>
<path d="M4024 1430 c-35 -14 -54 -50 -54 -101 0 -40 4 -51 31 -73 30 -25 77
-34 113 -20 26 10 7 24 -32 24 -44 1 -72 19 -72 49 0 19 5 21 65 21 64 0 65 0
65 28 -1 56 -63 95 -116 72z m72 -37 c25 -33 17 -43 -36 -43 -41 0 -50 3 -50
18 0 41 61 58 86 25z"/>
<path d="M4678 1423 c-57 -36 -65 -114 -17 -163 28 -27 37 -31 77 -28 61 4 69
28 9 28 -31 0 -49 6 -62 20 -31 34 -13 50 55 50 71 0 80 11 55 63 -23 48 -68
60 -117 30z m80 -25 c7 -7 12 -20 12 -30 0 -15 -8 -18 -43 -18 -53 0 -59 5
-45 36 12 26 55 33 76 12z"/>
<path d="M4878 1429 c-10 -5 -23 -19 -29 -30 -14 -27 8 -61 51 -79 23 -9 30
-18 28 -34 -2 -17 -10 -21 -40 -22 -43 -1 -59 -11 -38 -24 26 -16 75 -11 98
10 38 35 27 70 -29 98 -49 24 -47 56 4 60 41 4 49 16 15 26 -31 8 -40 7 -60
-5z"/>
<path d="M2840 1350 c0 -69 3 -82 22 -100 24 -22 68 -26 86 -8 9 9 15 9 24 0
24 -24 28 -10 28 88 0 82 -3 100 -15 100 -12 0 -15 -15 -15 -71 0 -57 -4 -75
-17 -85 -49 -37 -83 2 -83 93 0 49 -3 63 -15 63 -12 0 -15 -16 -15 -80z"/>
<path d="M3135 1413 c8 -20 34 -105 42 -140 7 -28 25 -44 40 -35 6 4 20 33 31
65 20 61 35 76 40 42 2 -11 7 -29 11 -40 5 -11 14 -33 20 -48 6 -16 17 -27 24
-25 6 3 26 47 44 99 27 79 30 95 17 97 -21 5 -22 3 -39 -63 -9 -32 -18 -62
-22 -68 -3 -6 -16 21 -28 59 -24 76 -49 96 -61 47 -4 -15 -10 -32 -14 -38 -4
-5 -11 -25 -15 -42 -3 -18 -10 -33 -15 -33 -5 0 -11 15 -15 33 -19 91 -26 107
-46 107 -16 0 -19 -4 -14 -17z"/>
<path d="M5110 1337 c0 -58 4 -97 10 -97 6 0 10 24 11 53 1 72 11 100 37 112
12 5 22 13 22 17 0 13 -21 9 -38 -8 -14 -15 -17 -15 -29 2 -11 15 -13 4 -13
-79z"/>
<path d="M5269 1417 c-46 -35 -53 -111 -13 -151 22 -21 35 -26 73 -24 l46 1
-44 4 c-55 5 -79 32 -79 90 0 45 26 83 56 83 29 0 54 -24 55 -53 1 -15 8 -27
15 -27 17 0 15 20 -8 58 -16 26 -26 32 -52 32 -18 0 -40 -6 -49 -13z"/>
<path d="M5452 1410 c-21 -34 -14 -50 38 -82 28 -17 50 -34 50 -38 0 -16 -37
-39 -70 -43 -33 -4 -32 -4 8 -5 93 -4 99 63 10 108 -18 9 -28 21 -28 36 0 19
8 25 43 32 l42 10 -40 1 c-30 1 -43 -4 -53 -19z"/>
<path d="M5623 1402 c-16 -19 -23 -40 -23 -74 0 -40 4 -49 30 -68 22 -16 41
-20 72 -17 l43 4 -46 1 c-36 2 -50 7 -62 25 -22 34 -20 104 4 128 35 35 90 15
92 -34 1 -15 8 -27 15 -27 17 0 15 20 -8 58 -17 27 -26 32 -57 32 -29 0 -43
-7 -60 -28z"/>
<path d="M5825 1421 c-3 -6 8 -8 28 -4 62 10 93 -56 32 -68 l-30 -6 35 -4 c40
-5 51 -30 26 -58 -14 -15 -13 -18 4 -29 19 -12 20 -9 20 65 -1 95 -12 113 -68
113 -22 0 -43 -4 -47 -9z"/>
<path d="M6017 1363 c0 -38 7 -80 14 -95 10 -23 18 -28 48 -27 36 1 36 1 6 8
-36 7 -54 49 -54 129 -1 28 -4 52 -8 52 -5 0 -7 -30 -6 -67z"/>
<path d="M6160 1371 c0 -45 -5 -65 -22 -87 -18 -22 -19 -27 -6 -21 11 4 21 0
27 -11 8 -12 10 11 11 81 0 53 -2 97 -5 97 -3 0 -5 -26 -5 -59z"/>
<path d="M6257 1380 l28 -49 -33 -46 c-17 -25 -26 -45 -19 -45 6 1 21 15 32
33 28 44 48 45 70 2 11 -19 25 -35 32 -35 8 0 1 18 -17 46 -31 50 -30 61 8
112 17 22 20 32 10 32 -7 0 -22 -16 -32 -35 -11 -19 -25 -35 -32 -35 -7 0 -22
16 -34 35 -33 54 -45 41 -13 -15z"/>
<path d="M5816 1324 c-36 -36 -9 -85 46 -83 l33 1 -30 7 c-24 5 -31 12 -33 34
-2 16 2 35 9 43 16 20 -5 18 -25 -2z"/>
</g>
</svg>
